<svg width="238" height="104" viewBox="0 0 238 104" fill="none" xmlns="http://www.w3.org/2000/svg">
<path d="M37.7314 21.7754C37.7314 21.7754 42.2898 20.5238 44.569 21.7754L43.1621 50.3206C42.9175 50.5854 42.5976 50.7719 42.2438 50.8557C41.8901 50.9396 41.5189 50.917 41.1784 50.7908C40.0106 50.3206 37.7314 21.7754 37.7314 21.7754Z" fill="#DFBD07"/>
<path d="M30.2469 23.2552C30.2469 23.2552 30.8448 23.3589 31.7945 27.017C32.7441 30.675 33.9048 34.1256 33.9048 34.1256C33.9048 34.1256 36.993 43.537 37.2111 45.3141C37.4291 47.0913 38.0763 48.8685 38.9486 49.3871C39.8209 49.9057 38.5125 47.3126 38.2944 45.3141C38.0763 43.3157 30.8096 23.4903 32.104 22.0727C33.3983 20.6552 30.2469 23.2552 30.2469 23.2552Z" fill="#D7DBDB"/>
<path d="M36.8672 50.9222C36.8672 50.9222 36.7265 50.6733 36.4662 50.2307C35.9527 49.3733 35.01 47.769 33.8916 45.8258C32.2033 42.9008 31.0074 42.6933 30.7893 40.4944C30.5712 38.2954 24.7115 28.8909 23.6211 25.8622L24.817 25.2329C24.817 25.2329 32.3721 41.0407 33.8916 43.212C34.8483 44.6088 36.8672 50.9222 36.8672 50.9222Z" fill="#FC9500"/>
<path d="M46.5174 20.5722C46.5198 21.5469 46.4445 22.5203 46.2923 23.4834C46.029 25.4684 45.9303 27.4711 45.9969 29.4718C46.0954 30.6405 45.7577 35.1214 45.7577 35.1214C45.7577 35.1214 44.9417 40.3907 45.1879 41.5455C45.4341 42.7003 45.6522 43.4471 45.6522 43.4471C45.6522 43.4471 45.6522 39.5816 45.9054 38.8901C46.1108 38.025 46.2332 37.143 46.2712 36.2555C46.2712 36.2555 46.4471 27.3351 46.9747 25.8829C47.5023 24.4308 46.5174 20.5722 46.5174 20.5722Z" fill="#82A40E" stroke="#82A40E" stroke-miterlimit="10"/>
<path d="M51.2591 22.6951C51.3032 25.5077 50.8388 28.3057 49.8874 30.9586C48.926 33.7222 48.4502 36.6265 48.4805 39.547C48.4805 39.547 47.4675 44.5397 47.4183 45.3833C47.369 46.2269 45.948 49.1866 46.3279 49.9265L47.4534 50.4105C47.4534 50.4105 47.9458 44.9269 48.7548 43.4056C49.5638 41.8843 52.5394 22.5983 53.1936 22.5568L51.2591 22.6951Z" fill="#D7DBDB"/>
<path d="M58.28 19.1892C58.28 19.1892 53.8693 31.9958 53.4191 33.7108C52.9689 35.4257 51.0273 38.6688 51.0273 38.6688L52.3217 38.247L56.655 26.533L59.6306 19.8116L58.28 19.1892Z" fill="#D7DBDB"/>
<path d="M49.7109 48.2254C49.7109 48.2254 50.7309 46.2892 51.1178 45.2796C51.2057 45.1052 51.2537 44.914 51.2585 44.7194C51.16 44.4498 52.377 42.4859 53.0594 41.3726L53.4463 40.7364C53.8896 39.6289 54.2609 38.4949 54.5577 37.3411C54.5577 37.3411 56.7385 31.657 57.2309 29.9904C57.4266 29.4624 57.7305 28.9794 58.1237 28.5714C58.517 28.1635 58.9912 27.8392 59.5171 27.6186L59.2287 26.8234L60.9029 26.2356C60.9029 26.2356 55.4793 39.0491 55.0572 40.4667C54.6351 41.8843 49.7109 48.2254 49.7109 48.2254Z" fill="#DFBD07"/>
<path d="M66.3272 25.3574C66.3272 25.3574 64.8078 27.9298 64.0129 28.9532C63.39 29.8319 62.8373 30.7566 62.3597 31.7192L60.9528 34.0634C60.9528 34.0634 58.0757 37.8667 57.9139 38.4752C57.7521 38.9255 57.4929 39.336 57.1542 39.6784L57.6325 40.0795C57.6325 40.0795 58.2445 38.3092 58.7369 37.9081C59.2294 37.5071 59.4404 36.6081 60.0946 36.0757C60.5055 35.6851 60.8019 35.1931 60.9528 34.6512C60.9528 34.6512 62.5778 32.0235 62.7396 31.7192C62.9014 31.4149 64.3294 29.2851 64.3294 29.2851C64.3294 29.2851 66.8689 26.3324 66.8689 25.6824C66.8689 25.0324 66.3272 25.3574 66.3272 25.3574Z" fill="#FC9500" stroke="#FC9500" stroke-miterlimit="10"/>
<path d="M70.0982 25.3643C69.058 27.6931 67.6317 29.8359 65.8775 31.7054C63.2465 34.2847 58.5826 41.3519 58.5826 41.3519C58.5826 41.3519 56.2753 46.2892 55.4241 47.0706C54.5729 47.852 52.8073 50.6042 52.3078 50.6042C51.8084 50.6042 53.6233 52.2361 54.6996 52.6233C55.7758 53.0106 56.9717 49.4079 59.1243 47.7068C61.2769 46.0057 62.2898 45.6322 62.7119 44.9961C63.134 44.3599 65.1037 42.2301 65.1037 42.2301C65.1037 42.2301 69.648 37.2927 71.7373 36.1103C73.8265 34.9278 75.6274 31.1799 76.7599 30.841C77.8925 30.5022 74.6496 28.7665 74.6496 28.7665C74.6496 28.7665 74.7691 28.9325 73.7491 29.8314C72.7291 30.7304 70.9353 32.8602 70.2319 33.6416C69.5284 34.423 67.0593 36.7879 66.5246 37.514C65.99 38.2401 61.1432 43.8551 59.7082 44.4705C58.2731 45.086 57.2461 47.444 56.7114 48.0041C56.1768 48.5642 58.9906 46.3791 59.4057 46.0402C59.8207 45.7014 55.4593 51.2058 54.6855 51.4271C53.9117 51.6483 55.7618 49.6084 55.6985 49.3111C55.6352 49.0137 53.6655 51.3856 53.2504 51.1435C52.8354 50.9015 53.2504 50.2515 53.8484 49.7605C54.4463 49.2696 55.3397 49.1382 55.6985 48.3775C56.0572 47.6169 56.7748 46.5243 57.1054 45.8535C57.9891 44.4278 58.9666 43.0603 60.0317 41.7598C60.2709 41.5316 67.6291 32.6113 67.9878 31.491C68.3466 30.3708 71.5755 26.2771 71.5755 26.2771L70.0982 25.3643Z" fill="#82A40E"/>
<path d="M79.0252 36.0204C79.0252 36.0204 72.6941 41.7737 72.1876 41.9811C71.6812 42.1886 68.8744 44.8025 67.8966 45.4386C66.9188 46.0748 68.382 45.8535 68.8181 45.7014C69.6121 45.3076 70.3271 44.7758 70.9285 44.1317C71.2591 43.6615 71.7445 42.7487 71.7445 42.7487C72.0399 42.6254 72.3493 42.5372 72.666 42.4859C73.1022 42.4375 75.1633 40.7641 75.7049 40.3492C76.2466 39.9343 78.153 38.3093 78.5821 38.0949C79.1312 37.8761 79.6953 37.6958 80.2704 37.5555C80.4392 37.5348 79.0252 36.0204 79.0252 36.0204Z" fill="#D7DBDB"/>
<path d="M68.3677 47.0429C68.3677 47.0429 59.061 51.8834 57.3164 54.9329C57.3164 54.9329 59.3494 55.4446 64.4494 51.7797C69.5495 48.1147 82.1273 42.9008 82.1273 42.9008L82.2961 40.2454C82.2961 40.2454 74.7199 44.3944 73.6999 44.7955C72.1188 45.6117 70.598 46.536 69.1485 47.5615C68.5014 48.0041 68.3677 47.0429 68.3677 47.0429Z" fill="#D7DBDB"/>
<path d="M58.371 62.6432C58.2434 62.7907 58.1391 62.9562 58.0615 63.1342C58.0228 63.1977 58.0003 63.2693 57.9956 63.3431C57.9909 63.4169 58.0043 63.4908 58.0346 63.5585C58.0649 63.6262 58.1113 63.6858 58.1698 63.7322C58.2283 63.7787 58.2973 63.8108 58.371 63.8257C59.187 64.0815 65.4055 64.0539 65.4055 64.0539C65.4055 64.0539 75.0147 63.1964 77.512 63.3624C80.0093 63.5283 85.5384 64.1299 86.0942 64.0539C86.6499 63.9778 84.9546 79.0318 82.5065 79.7164C80.0585 80.401 57.0977 69.4683 56.9359 69.2056C56.7741 68.9428 57.7238 65.5406 57.4283 63.4592C57.1329 61.3778 65.6236 62.6501 65.6236 62.6501L71.4412 62.4911H76.5342V61.5783L65.0749 62.0969L58.371 62.6432Z" fill="#82A40E"/>
<path d="M56.6904 70.6508L79.3276 84.9373C79.3276 84.9373 73.8196 93.8715 71.5896 93.5603C69.3596 93.2491 53.6022 74.7722 54.2002 74.1982C55.2629 73.1911 56.1097 71.9849 56.6904 70.6508Z" fill="#FC9500"/>
<path d="M17.4863 29.5272L18.7103 28.6351C18.7103 28.6351 34.3974 51.109 35.1853 51.7244C35.9731 52.3398 34.7351 52.6579 34.7351 52.6579L30.6831 47.2573L24.352 38.6204L17.4863 29.5272Z" fill="#DFBD07"/>
<path d="M32.9623 54.0686L34.2637 53.4393C33.3083 52.9702 32.4663 52.3053 31.7945 51.4893C30.9223 50.3068 28.6431 47.6376 28.6431 47.6376C28.6431 47.6376 23.7189 43.2466 23.6204 42.8524C23.5219 42.4582 20.9895 40.1901 20.9895 40.1901C20.3517 39.5622 19.8028 38.8528 19.3575 38.081C18.7103 36.8986 15.7769 34.5475 15.7769 34.5475C15.7769 34.5475 13.8986 32.9778 13.983 32.1895C14.0675 31.4011 12.6816 33.365 12.6816 33.365C12.6816 33.365 15.2071 35.5571 15.6151 36.0688C16.0231 36.5805 16.7547 38.2263 18.0561 38.6204C19.3574 39.0146 22.6989 43.4609 22.6989 43.4609L32.9623 54.0686Z" fill="#82A40E"/>
<path d="M8.95331 38.1778C9.83966 38.4475 12.1822 39.4571 16.6139 43.2258C16.6523 43.2582 16.6972 43.2824 16.7456 43.2969C16.794 43.3114 16.8449 43.3158 16.8951 43.31C16.9454 43.3041 16.9938 43.2881 17.0375 43.2629C17.0811 43.2377 17.1189 43.2039 17.1486 43.1636L17.2822 42.9838C17.309 42.9472 17.3281 42.9057 17.3384 42.8617C17.3487 42.8177 17.3499 42.7722 17.3421 42.7278C17.3342 42.6833 17.3174 42.6409 17.2926 42.6029C17.2679 42.5649 17.2356 42.5322 17.1978 42.5066C15.7909 41.58 10.0648 37.6661 9.91 36.7395C9.79041 35.9858 9.10104 37.0576 8.74228 37.68C8.71704 37.7254 8.70248 37.7758 8.69971 37.8275C8.69695 37.8792 8.70603 37.9309 8.72629 37.9786C8.74654 38.0264 8.77746 38.0691 8.81675 38.1036C8.85605 38.1381 8.90271 38.1635 8.95331 38.1778Z" fill="#DFBD07"/>
<path d="M17.3524 43.3365C17.0711 43.8205 21.2566 46.9876 21.2566 46.3168C21.2566 46.3168 17.8941 42.396 17.3524 43.3365Z" fill="#DFBD07"/>
<path d="M21.7209 46.6971C21.7209 46.6971 28.2771 53.9925 31.1261 54.5388C33.9751 55.0851 21.7209 46.6971 21.7209 46.6971Z" fill="#DFBD07"/>
<path d="M6.00598 41.3519C6.00598 41.3519 24.9993 52.893 26.4062 54.0686C27.8131 55.2441 29.8602 56.8346 30.8309 56.392C31.4954 56.04 32.0296 55.4906 32.3574 54.8223L29.3115 60.8868C29.3115 60.8868 26.3851 59.0612 20.2439 58.4873C16.3952 58.0574 12.6287 57.0887 9.05898 55.6106C7.81614 55.4805 6.56621 55.4274 5.31659 55.4516C4.77493 55.5069 4.39507 54.5112 0.919998 53.626C0.983309 53.626 3.52982 43.0945 6.00598 41.3519Z" fill="#D7DBDB"/>
<path d="M0.110883 63.5629C0.110883 63.5629 9.61458 62.9336 16.3467 63.5629C20.5026 63.9372 24.6867 63.8908 28.833 63.4246V62.6501L29.1073 64.7246C28.5167 64.4401 27.8657 64.2978 27.208 64.3097C25.8996 64.2544 19.6037 64.4134 18.7665 64.3097C17.9294 64.206 5.84405 64.6209 4.26831 64.3097C2.89923 64.1119 1.50811 64.1119 0.139028 64.3097C-0.156424 64.3373 0.110883 63.5629 0.110883 63.5629Z" fill="#FC9500"/>
<path d="M0.491147 68.7284C0.491147 68.7284 9.50241 67.4768 12.682 67.5252C15.8616 67.5736 21.1798 66.4326 21.2572 66.4326C21.3345 66.4326 28.6716 65.4369 29.1077 65.3331C29.5439 65.2294 29.1077 66.6401 29.1077 66.6401C26.4668 66.747 23.8402 67.0778 21.2572 67.6289C18.3589 68.4173 15.6295 69.6205 14.5462 69.5651C13.4629 69.5098 7.55384 70.4019 7.27949 70.4572L0.983564 71.5497C0.462907 70.7042 0.286992 69.6963 0.491147 68.7284Z" fill="#FC9500"/>
<path d="M3.48047 78.8727C3.48047 78.8727 7.44093 76.1551 9.17846 76.0445C10.916 75.9338 17.4863 73.071 17.4863 73.071C17.4863 73.071 27.3698 68.0991 28.5657 68.438C29.7616 68.7768 29.2692 69.4614 29.2692 69.4614C29.2692 69.4614 22.4527 72.0753 20.9895 72.9189C19.5263 73.7625 13.7439 75.8924 13.4133 76.0099C13.0826 76.1275 8.09513 78.5685 6.1958 78.8866C5.26637 79.0123 4.35509 79.2444 3.48047 79.5781V78.8727Z" fill="#DFBD07"/>
<path d="M30.135 70.6646L29.3823 67.788C29.3823 67.788 30.5711 72.5455 32.7448 73.2854C33.1458 73.4168 33.0051 74.053 32.7448 74.3642C32.054 75.1449 31.4393 75.9876 30.9088 76.8812C29.8817 78.6584 24.8872 81.9015 22.3899 84.9372C20.3499 87.4059 15.6438 91.1607 13.9484 92.4677C13.7808 92.598 13.5718 92.666 13.3582 92.6597C13.1445 92.6534 12.94 92.5731 12.7807 92.4331C11.1839 91.0086 6.75209 86.9841 6.61843 85.8016C6.4496 84.3564 13.0199 81.5904 14.272 80.802C15.5242 80.0137 20.786 77.2477 21.8201 76.2589C23.7113 74.7651 25.8131 73.5492 28.0598 72.6492" fill="#82A40E"/>
<path d="M32.4203 78.4509C32.4203 78.4509 30.7882 80.5254 30.2466 81.376C29.7049 82.2265 27.6368 84.6191 27.4328 85.2484C27.2288 85.8777 25.2661 88.9064 25.2661 88.9064C25.2661 88.9064 24.5627 92.0251 23.4864 92.3985C22.4101 92.772 19.8988 95.7039 19.3149 96.5476C18.731 97.3912 19.7932 97.6954 19.7932 97.6954C19.7932 97.6954 23.4864 94.7427 23.4864 93.5464C23.4864 92.3501 26.0892 88.9894 26.6519 88.3601C27.2147 87.7309 30.0426 85.2277 30.2607 84.2872C30.4787 83.3468 32.4906 80.4148 32.9478 79.5297C33.0173 79.4295 33.0587 79.3131 33.0679 79.1921C33.0772 79.0712 33.0539 78.9501 33.0004 78.8408C32.947 78.7315 32.8652 78.638 32.7634 78.5695C32.6616 78.5011 32.5432 78.4602 32.4203 78.4509Z" fill="#82A40E"/>
<path d="M36.8668 76.8812C36.8668 76.8812 35.678 77.2961 34.2641 82.109C32.8501 86.9218 26.0617 98.0135 26.0899 98.8364C25.9946 99.5743 25.7352 100.283 25.3302 100.911H26.4697C26.4697 100.911 28.3058 95.5794 29.3821 94.8464C30.4584 94.1135 33.6028 86.583 33.6028 86.2718C33.6028 85.9606 37.9572 77.9323 36.8668 76.8812Z" fill="#D7DBDB"/>
<path d="M39.6948 77.9323H41.1017C41.1017 77.9323 38.8225 88.3048 38.4989 89.9506C38.1753 91.5964 37.0427 96.43 37.0427 96.43L35.4459 103.933L32.9346 103.428C32.9346 103.428 35.0449 95.9114 35.1856 95.3858C35.3263 94.8603 36.1072 90.6836 36.2197 89.5357C36.3323 88.3878 37.0709 85.8777 37.7321 85.2484C38.3934 84.6191 39.6948 77.9323 39.6948 77.9323Z" fill="#FC9500"/>
<path d="M42.7324 78.4509H43.8157V103.435L42.7324 78.4509Z" fill="#82A40E"/>
<path d="M44.9913 77.9323H46.7077C46.7077 77.9323 52.5393 102.204 52.9403 102.826C53.3413 103.449 49.8803 104.209 48.9658 103.947C48.0513 103.684 48.0513 96.2364 47.8402 95.7178C47.6292 95.1991 46.5529 89.8607 46.7077 89.5495C46.8624 89.2384 45.0827 79.0802 44.9913 77.9323Z" fill="#DFBD07"/>
<path d="M48.6005 76.8812L56.6551 101.976L57.6188 101.658C57.6188 101.658 54.9316 94.5284 54.8472 92.9932C54.7628 91.4581 52.4062 87.233 52.4062 87.233L48.6005 76.8812Z" fill="#82A40E"/>
<path d="M50.7176 76.0583C50.7176 76.0583 55.888 85.2761 56.5774 86.6867C57.2668 88.0974 59.349 91.1124 59.4264 91.6656C60.7146 94.2249 62.1715 96.6989 63.7878 99.0715C64.1606 99.3758 64.6812 98.6843 64.6812 98.6843L59.7148 90.7251L50.7176 76.0583Z" fill="#D7DBDB"/>
<path d="M51.7724 75.7057C51.7724 75.7057 56.2113 82.2542 56.3308 82.3718C56.4504 82.4893 66.8827 97.3843 66.8827 97.3843L67.9871 96.6928C67.9871 96.6928 52.5533 75.7195 52.1453 75.7195L51.7724 75.7057Z" fill="#D7DBDB"/>
<path d="M52.9753 75.3945C52.9753 75.3945 67.6143 95.621 68.7539 96.0635C69.8935 96.5061 69.1619 95.5933 69.1619 95.5933C69.1619 95.5933 59.5527 83.0495 58.9407 82.3856C58.3287 81.7218 53.7632 75.0833 52.9753 75.3945Z" fill="#DFBD07"/>
<path d="M43.2743 74.5923C49.537 74.5923 54.614 69.7038 54.614 63.6735C54.614 57.6432 49.537 52.7547 43.2743 52.7547C37.0115 52.7547 31.9346 57.6432 31.9346 63.6735C31.9346 69.7038 37.0115 74.5923 43.2743 74.5923Z" fill="#82A40E"/>
<path d="M39.6738 57.0558C39.2939 57.4777 37.5634 59.9878 37.1906 60.1399C36.8178 60.2921 38.2669 60.4027 38.696 60.1399C39.1251 59.8772 40.2155 58.6809 40.2155 58.1069C40.2155 57.533 40.7642 57.0558 40.2155 57.0558H39.6738Z" fill="#82A40E"/>
<path d="M44.4494 57.5814C44.4494 57.5814 44.4494 64.6831 44.7167 65.0773C44.984 65.4715 45.589 62.6501 45.589 62.6017C45.589 62.5533 46.0251 58.5219 44.4494 57.5814Z" fill="#82A40E"/>
<path d="M37.4502 63.6735C37.4502 63.6735 35.4735 64.7937 35.5931 65.3677C36.5495 67.5246 37.6178 69.6318 38.7938 71.6811C39.0095 72.1972 39.0894 72.7585 39.026 73.313C39.026 73.313 38.8853 69.2124 38.7938 68.4725C38.7088 66.9801 38.7088 65.4841 38.7938 63.9916C38.8571 63.798 38.5336 63.5974 37.4502 63.6735Z" fill="#82A40E"/>
<path d="M56.0146 54.8984C56.0146 54.8984 57.8225 60.2299 57.9843 61.2118C58.1461 62.1937 63.612 60.0501 72.0535 60.5964C80.4949 61.1427 80.7622 59.974 81.7893 60.0916C82.8163 60.2091 86.2914 59.241 86.2914 59.241C86.2914 59.241 86.0593 48.6195 83.9207 46.6626C83.9207 46.6626 78.1594 49.1382 74.6211 50.3552C73.4744 50.7494 69.0919 53.0037 65.9334 53.4186C64.4702 53.6053 61.0584 55.7904 60.4605 56.0601C56.7181 57.7128 56.0146 54.8984 56.0146 54.8984Z" fill="#DFBD07"/>
<path d="M49.7888 9.88158C50.9723 9.66701 52.1875 9.68818 53.3624 9.94382C52.179 10.1584 50.9638 10.1372 49.7888 9.88158Z" fill="#D7DBDB"/>
<path d="M50.0138 8.75439C51.2007 8.92245 52.3402 9.32719 53.3622 9.94378C52.1761 9.77254 51.0373 9.36802 50.0138 8.75439Z" fill="#D7DBDB"/>
<path d="M50.4922 7.77942C51.5873 8.30375 52.5635 9.03991 53.3623 9.94382C52.2685 9.41741 51.2927 8.68155 50.4922 7.77942Z" fill="#D7DBDB"/>
<path d="M51.5547 6.92883C52.359 7.80293 52.9741 8.8287 53.3626 9.94378C52.5598 9.06855 51.9449 8.04311 51.5547 6.92883Z" fill="#D7DBDB"/>
<path d="M52.8207 6.50708C53.2381 7.61149 53.4224 8.78789 53.3623 9.96459C52.942 8.86092 52.7576 7.68393 52.8207 6.50708Z" fill="#D7DBDB"/>
<path d="M54.1783 6.32727C54.1403 7.57254 53.8635 8.79956 53.3623 9.94384C53.396 8.69805 53.673 7.47024 54.1783 6.32727Z" fill="#D7DBDB"/>
<path d="M55.6978 6.62463C55.1226 7.85672 54.3322 8.98013 53.3623 9.94385C53.9332 8.70937 54.7241 7.58526 55.6978 6.62463Z" fill="#D7DBDB"/>
<path d="M56.4716 7.41296C55.598 8.43315 54.5448 9.29045 53.3623 9.94386C54.2377 8.92549 55.2905 8.06847 56.4716 7.41296Z" fill="#D7DBDB"/>
<path d="M56.5208 8.59534C55.5786 9.26953 54.5024 9.74079 53.3623 9.97834C54.3062 9.307 55.3818 8.83602 56.5208 8.59534Z" fill="#D7DBDB"/>
<path d="M53.6721 12.9035C53.2104 11.8669 53.1139 10.7086 53.3977 9.61194C53.339 10.1552 53.3509 10.7036 53.4329 11.2439C53.5043 11.7694 53.689 12.2739 53.9746 12.7237L53.6721 12.9035Z" fill="#D7DBDB"/>
<path d="M59.8066 1.00964C60.8051 1.67172 61.657 2.52558 62.3109 3.5198C61.3162 2.85327 60.4652 2.00024 59.8066 1.00964Z" fill="#D7DBDB"/>
<path d="M60.7764 0.359619C61.5024 1.29863 62.0243 2.37425 62.3099 3.51978C61.5881 2.57825 61.0666 1.50351 60.7764 0.359619Z" fill="#D7DBDB"/>
<path d="M61.8175 0C62.2195 1.12906 62.3869 2.32593 62.3099 3.51974C61.9117 2.38978 61.7444 1.19367 61.8175 0Z" fill="#D7DBDB"/>
<path d="M63.1758 0.124512C63.1287 1.30283 62.8341 2.45883 62.3105 3.51979C62.3669 2.34281 62.661 1.18862 63.1758 0.124512Z" fill="#D7DBDB"/>
<path d="M64.3926 0.698364C63.9 1.7659 63.1943 2.72531 62.3174 3.5197C62.8081 2.45111 63.5141 1.49136 64.3926 0.698364Z" fill="#D7DBDB"/>
<path d="M65.4761 1.50745C64.5615 2.37096 63.4869 3.05406 62.3105 3.51972C63.2241 2.65485 64.2989 1.97157 65.4761 1.50745Z" fill="#D7DBDB"/>
<path d="M66.3484 2.76599C65.0575 3.24714 63.6909 3.50224 62.3105 3.51973C63.6016 3.03927 64.9681 2.78419 66.3484 2.76599Z" fill="#D7DBDB"/>
<path d="M66.3343 3.86547C64.9828 3.98591 63.6203 3.86883 62.3105 3.51972C63.662 3.39551 65.0252 3.51265 66.3343 3.86547Z" fill="#D7DBDB"/>
<path d="M65.5253 4.74374C64.3786 4.56061 63.2836 4.14369 62.3105 3.51978C63.4576 3.70171 64.5529 4.11872 65.5253 4.74374Z" fill="#D7DBDB"/>
<path d="M60.425 5.84323C60.8345 4.78496 61.5922 3.89167 62.5776 3.30542C61.6988 3.95879 61.0614 4.87673 60.7627 5.9193L60.425 5.84323Z" fill="#D7DBDB"/>
<path d="M81.5993 18.069C81.3579 19.3637 80.8813 20.6052 80.1924 21.7339C80.4282 20.4376 80.9051 19.1952 81.5993 18.069Z" fill="#82A40E"/>
<path d="M82.6822 18.6982C82.036 19.8493 81.1855 20.8774 80.1709 21.7339C80.815 20.5815 81.6658 19.553 82.6822 18.6982Z" fill="#82A40E"/>
<path d="M83.5479 19.5281C82.5723 20.4544 81.4359 21.2015 80.1924 21.734C81.1692 20.8092 82.3053 20.0623 83.5479 19.5281Z" fill="#82A40E"/>
<path d="M84.0473 20.918C82.823 21.4165 81.5169 21.693 80.1924 21.7339C81.4157 21.2321 82.7223 20.9555 84.0473 20.918Z" fill="#82A40E"/>
<path d="M84.0192 22.3701C82.7145 22.3925 81.417 22.1768 80.1924 21.7339C81.4975 21.7058 82.7961 21.9217 84.0192 22.3701Z" fill="#82A40E"/>
<path d="M83.695 23.8291C82.408 23.3455 81.2175 22.6433 80.1777 21.7546C81.4652 22.2372 82.6559 22.9395 83.695 23.8291Z" fill="#82A40E"/>
<path d="M82.8092 25.2882C81.7488 24.2489 80.8653 23.0489 80.1924 21.7339C81.255 22.7713 82.1388 23.9718 82.8092 25.2882Z" fill="#82A40E"/>
<path d="M81.6837 25.8138C80.9617 24.5437 80.4579 23.1652 80.1924 21.7339C80.9124 23.0049 81.4161 24.383 81.6837 25.8138Z" fill="#82A40E"/>
<path d="M80.4173 25.4542C80.1038 24.2392 80.0274 22.9768 80.1922 21.7339C80.5058 22.9488 80.5822 24.2112 80.4173 25.4542Z" fill="#82A40E"/>
<path d="M76.2318 20.911C76.8118 21.3017 77.4645 21.5761 78.1525 21.7185C78.8406 21.8609 79.5504 21.8685 80.2415 21.7408C78.8295 22.1143 77.3246 21.9229 76.0559 21.2084L76.2318 20.911Z" fill="#82A40E"/>
<path d="M73.5938 8.31177C74.7214 9.0168 75.7124 9.91361 76.5201 10.9602C75.3877 10.2612 74.3958 9.3635 73.5938 8.31177Z" fill="#82A40E"/>
<path d="M74.5996 7.55115C75.4477 8.57967 76.0984 9.75123 76.52 11.0087C75.6692 9.98197 75.0181 8.80988 74.5996 7.55115Z" fill="#82A40E"/>
<path d="M75.704 7.08093C76.2096 8.31574 76.486 9.6296 76.5201 10.9603C76.0145 9.72545 75.7381 8.41158 75.704 7.08093Z" fill="#82A40E"/>
<path d="M77.1958 7.14319C77.1994 8.44702 76.961 9.74056 76.4923 10.9603C76.4858 9.65619 76.7243 8.36215 77.1958 7.14319Z" fill="#82A40E"/>
<path d="M78.5525 7.71021C78.0896 8.90998 77.3998 10.0128 76.5195 10.9603C76.9885 9.76344 77.6777 8.66172 78.5525 7.71021Z" fill="#82A40E"/>
<path d="M79.8047 8.55383C78.8624 9.53991 77.7502 10.3546 76.5195 10.9603C77.4637 9.97623 78.5755 9.16185 79.8047 8.55383Z" fill="#82A40E"/>
<path d="M80.8528 9.90222C79.4766 10.4844 78.0129 10.8418 76.5195 10.9602C77.8971 10.3819 79.3601 10.0247 80.8528 9.90222Z" fill="#82A40E"/>
<path d="M80.9302 11.1263C79.4607 11.3098 77.9705 11.2537 76.5195 10.9603C77.9892 10.7802 79.4789 10.8363 80.9302 11.1263Z" fill="#82A40E"/>
<path d="M80.1212 12.1427C78.8546 11.9794 77.6318 11.5779 76.5195 10.9602C77.7846 11.1301 79.0062 11.5311 80.1212 12.1427Z" fill="#82A40E"/>
<path d="M74.2412 14.2657C74.8263 13.8825 75.3288 13.3897 75.7199 12.8154C76.111 12.2411 76.383 11.5966 76.5204 10.9188C76.3442 12.344 75.6036 13.6434 74.4593 14.5354L74.2412 14.2657Z" fill="#82A40E"/>
<path d="M86.7773 5.38684C87.3036 6.59624 87.6015 7.88967 87.6567 9.20394C87.1304 7.99454 86.8325 6.7011 86.7773 5.38684Z" fill="#82A40E"/>
<path d="M88.0498 5.31079C88.1588 6.62125 88.0253 7.94027 87.6558 9.20395C87.5508 7.89353 87.6842 6.5752 88.0498 5.31079Z" fill="#82A40E"/>
<path d="M89.2248 5.5459C88.9269 6.8471 88.3958 8.08577 87.6562 9.20394C87.9541 7.90274 88.4852 6.66407 89.2248 5.5459Z" fill="#82A40E"/>
<path d="M90.4206 6.43103C89.679 7.5093 88.7447 8.44646 87.663 9.19704C88.4046 8.11877 89.3389 7.18161 90.4206 6.43103Z" fill="#82A40E"/>
<path d="M91.2086 7.65491C90.1331 8.38454 88.9282 8.9099 87.6562 9.20388C88.7332 8.47692 89.9375 7.95179 91.2086 7.65491Z" fill="#82A40E"/>
<path d="M91.7573 9.05183C90.4097 9.33727 89.0218 9.38876 87.6562 9.20396C89.0033 8.91521 90.3918 8.8637 91.7573 9.05183Z" fill="#82A40E"/>
<path d="M91.8281 10.7459C90.3577 10.4565 88.9443 9.9358 87.6426 9.20386C89.1131 9.49325 90.5264 10.014 91.8281 10.7459Z" fill="#82A40E"/>
<path d="M91.1942 11.797C89.8874 11.1243 88.6997 10.2487 87.6769 9.20386C88.9851 9.87423 90.1732 10.7501 91.1942 11.797Z" fill="#82A40E"/>
<path d="M89.9424 12.1842C88.9966 11.3408 88.221 10.3297 87.6562 9.20386C88.6039 10.0455 89.3798 11.057 89.9424 12.1842Z" fill="#82A40E"/>
<path d="M83.8995 10.6698C85.3183 10.6889 86.6868 10.1543 87.7052 9.18311C86.7394 10.2603 85.3783 10.9168 83.9206 11.0087V10.6698H83.8995Z" fill="#82A40E"/>
<path d="M88.7815 17.9583C89.5873 19.0089 90.1927 20.1944 90.5682 21.4573C89.7624 20.4067 89.157 19.2212 88.7815 17.9583Z" fill="#D7DBDB"/>
<path d="M89.9981 17.5849C90.4252 18.8311 90.6182 20.1432 90.5679 21.4573C90.1408 20.2111 89.9477 18.899 89.9981 17.5849Z" fill="#D7DBDB"/>
<path d="M91.2012 17.5365C91.2277 18.87 91.0133 20.1975 90.5681 21.4573C90.5382 20.1236 90.7526 18.7955 91.2012 17.5365Z" fill="#D7DBDB"/>
<path d="M92.5733 18.1174C92.1158 19.3406 91.4365 20.4722 90.5685 21.4573C91.0233 20.2328 91.7029 19.1008 92.5733 18.1174Z" fill="#D7DBDB"/>
<path d="M93.6356 19.1201C92.7714 20.0813 91.7309 20.8742 90.5685 21.4573C91.4351 20.4985 92.475 19.7061 93.6356 19.1201Z" fill="#D7DBDB"/>
<path d="M94.5079 20.344C93.2705 20.9373 91.9374 21.314 90.5685 21.4573C91.8046 20.8609 93.1383 20.484 94.5079 20.344Z" fill="#D7DBDB"/>
<path d="M95.0003 21.9759C93.5042 22.0393 92.0076 21.8642 90.5685 21.4573C92.0645 21.3939 93.5612 21.569 95.0003 21.9759Z" fill="#D7DBDB"/>
<path d="M94.641 23.1446C93.2036 22.803 91.8326 22.2331 90.582 21.4573C92.0194 21.7989 93.3904 22.3689 94.641 23.1446Z" fill="#D7DBDB"/>
<path d="M93.509 23.8154C92.3846 23.2211 91.3865 22.4207 90.5685 21.4573C91.6916 22.0534 92.6894 22.8536 93.509 23.8154Z" fill="#D7DBDB"/>
<path d="M87.2693 23.76C87.9555 23.6061 88.604 23.3204 89.1774 22.9193C89.7509 22.5182 90.238 22.0096 90.6107 21.4227C89.9328 22.6974 88.7696 23.6569 87.3748 24.0919L87.2693 23.76Z" fill="#D7DBDB"/>
<path d="M88.0427 29.4096C87.7549 32.0058 87.2251 34.5705 86.46 37.0715C86.7539 34.4762 87.2836 31.912 88.0427 29.4096Z" fill="#D7DBDB"/>
<path d="M88.8798 29.8107C88.561 31.0886 88.0106 32.2997 87.2549 33.3857C87.5737 32.1078 88.1241 30.8967 88.8798 29.8107Z" fill="#D7DBDB"/>
<path d="M89.9421 30.5022C89.2298 31.6142 88.3195 32.591 87.2549 33.3858C87.9671 32.2737 88.8774 31.2969 89.9421 30.5022Z" fill="#D7DBDB"/>
<path d="M90.7448 31.3804C89.7034 32.2496 88.5122 32.9287 87.2275 33.3857C88.2679 32.515 89.4594 31.8357 90.7448 31.3804Z" fill="#D7DBDB"/>
<path d="M91.1247 32.798C89.8717 33.2209 88.5519 33.42 87.2275 33.3858C88.4781 32.9533 89.7998 32.7539 91.1247 32.798Z" fill="#D7DBDB"/>
<path d="M91.0324 34.2432C89.7303 34.1878 88.4498 33.8971 87.2549 33.3857C88.558 33.4336 89.8399 33.7246 91.0324 34.2432Z" fill="#D7DBDB"/>
<path d="M90.6244 35.6815C89.3746 35.1136 88.2345 34.3368 87.2549 33.3857C88.5076 33.9487 89.6485 34.726 90.6244 35.6815Z" fill="#D7DBDB"/>
<path d="M89.6536 37.0853C88.6568 35.987 87.8467 34.7378 87.2549 33.3857C88.2523 34.4836 89.0624 35.7329 89.6536 37.0853Z" fill="#D7DBDB"/>
<path d="M88.4929 37.5417C87.8551 36.2334 87.437 34.8323 87.2549 33.3926C87.8967 34.6994 88.315 36.1012 88.4929 37.5417Z" fill="#D7DBDB"/>
<path d="M87.2555 37.1129C87.0164 35.8817 87.0164 34.617 87.2555 33.3857C87.4947 34.617 87.4947 35.8817 87.2555 37.1129Z" fill="#D7DBDB"/>
<path d="M83.3862 32.3278C83.9417 32.7519 84.5768 33.0642 85.2551 33.2469C85.9335 33.4296 86.6418 33.4792 87.3396 33.3927C85.9087 33.6843 84.4185 33.4058 83.1963 32.6182L83.3862 32.3278Z" fill="#D7DBDB"/>
<path d="M65.9688 13.0833C66.8221 13.1873 67.6588 13.3964 68.459 13.7056C68.0289 13.6856 67.6044 13.6017 67.1998 13.4567C67.1998 13.4567 65.9266 13.1109 65.9688 13.0833Z" fill="#FC9500"/>
<path d="M66.3689 12.288C67.1162 12.678 67.809 13.1615 68.43 13.7264C68.0405 13.5495 67.6801 13.3164 67.3608 13.0349C67.3608 13.0349 66.3196 12.2742 66.3689 12.2604V12.288Z" fill="#FC9500"/>
<path d="M66.8965 11.7002C67.4989 12.2979 68.0235 12.9669 68.4582 13.6917C68.1297 13.419 67.8472 13.0969 67.621 12.7374C67.621 12.7374 66.8402 11.7002 66.9176 11.7002H66.8965Z" fill="#FC9500"/>
<path d="M67.8536 11.2853C68.149 12.0693 68.3405 12.8874 68.4234 13.7194C68.2479 13.3395 68.1294 12.9365 68.0717 12.5231C68.0717 12.5231 67.8044 11.2645 67.8536 11.2853Z" fill="#FC9500"/>
<path d="M68.7818 11.1746C68.7796 12.0213 68.6709 12.8644 68.4582 13.6848C68.4251 13.2631 68.4559 12.839 68.5497 12.4263C68.5497 12.4263 68.7466 11.1401 68.7818 11.1746Z" fill="#FC9500"/>
<path d="M69.7742 11.2715C69.4308 12.1226 68.9895 12.9323 68.4588 13.6848C68.5965 13.2473 68.7953 12.8307 69.0497 12.447C69.0497 12.447 69.7531 11.2161 69.7531 11.2715H69.7742Z" fill="#FC9500"/>
<path d="M70.7802 11.7003C70.0781 12.4326 69.3001 13.0908 68.4588 13.6641C68.7832 13.2736 69.1567 12.9251 69.5702 12.6269C69.5702 12.6269 70.7731 11.6449 70.7802 11.7003Z" fill="#FC9500"/>
<path d="M71.16 12.3917C70.3094 12.9112 69.4036 13.3379 68.4588 13.6641C68.8702 13.383 69.3142 13.1508 69.7813 12.9726C69.7813 12.9726 71.1882 12.3433 71.1882 12.3986L71.16 12.3917Z" fill="#FC9500"/>
<path d="M70.956 13.2492C70.1476 13.4944 69.3109 13.6385 68.4658 13.678C68.86 13.5252 69.2747 13.4297 69.6968 13.3944C69.6968 13.3944 70.9842 13.2008 70.956 13.2492Z" fill="#FC9500"/>
<path d="M68.1355 16.3472C68.3791 15.9466 68.5345 15.5001 68.5914 15.0367C68.6484 14.5733 68.6057 14.1034 68.4661 13.6572" fill="#FC9500"/>
<path d="M68.1355 16.3472C68.3791 15.9466 68.5345 15.5001 68.5914 15.0367C68.6484 14.5733 68.6057 14.1034 68.4661 13.6572" stroke="#FC9500" stroke-width="0.25" stroke-miterlimit="10"/>
<path d="M61.5791 14.1482C61.8989 14.9343 62.1049 15.7606 62.1911 16.603C61.8753 15.8157 61.6695 14.9899 61.5791 14.1482Z" fill="#DFBD07"/>
<path d="M62.4371 14.1274C62.4729 14.9603 62.3877 15.7939 62.1839 16.603C62.1554 15.7704 62.2406 14.9378 62.4371 14.1274Z" fill="#DFBD07"/>
<path d="M63.2387 14.3073C63.0008 15.1183 62.6454 15.8915 62.1835 16.603C62.4276 15.7942 62.7826 15.0218 63.2387 14.3073Z" fill="#DFBD07"/>
<path d="M64.0547 14.9019C63.5153 15.5523 62.8853 16.125 62.1835 16.6029C62.725 15.9542 63.3546 15.3819 64.0547 14.9019Z" fill="#DFBD07"/>
<path d="M64.5964 15.704C63.8387 16.1126 63.0265 16.4152 62.1835 16.6029C62.9427 16.1972 63.7544 15.8947 64.5964 15.704Z" fill="#DFBD07"/>
<path d="M64.9769 16.6099C64.0427 16.7256 63.0973 16.7256 62.1631 16.6099C63.0971 16.4906 64.0429 16.4906 64.9769 16.6099Z" fill="#DFBD07"/>
<path d="M65.0396 17.6955C64.0483 17.4397 63.09 17.0731 62.1835 16.603C63.1758 16.8558 64.1345 17.2225 65.0396 17.6955Z" fill="#DFBD07"/>
<path d="M64.6034 18.3456C63.7298 17.8605 62.9175 17.2755 62.1835 16.603C63.0572 17.0881 63.8695 17.673 64.6034 18.3456Z" fill="#DFBD07"/>
<path d="M63.7452 18.5599C63.1349 17.9819 62.6093 17.3233 62.1835 16.603C62.7982 17.1771 63.3243 17.8364 63.7452 18.5599Z" fill="#DFBD07"/>
<path d="M59.6377 17.5503C60.1125 17.577 60.5878 17.5053 61.0326 17.3397C61.4773 17.1741 61.8817 16.9184 62.2194 16.5891" fill="#DFBD07"/>
<path d="M59.6377 17.4604C60.5811 17.5134 61.5081 17.2006 62.2194 16.5891C61.5344 17.2566 60.6093 17.6318 59.6447 17.6333V17.4604H59.6377Z" fill="#DFBD07"/>
<path d="M72.5596 0.159058C73.0322 0.884529 73.2904 1.72488 73.3052 2.58624C72.8333 1.86046 72.5752 1.02031 72.5596 0.159058Z" fill="#FC9500"/>
<path d="M73.4671 0.0690918C73.6397 0.896581 73.5689 1.75528 73.2631 2.54467C73.0905 1.71718 73.1612 0.858484 73.4671 0.0690918Z" fill="#FC9500"/>
<path d="M74.2411 0.242065C74.1618 1.09372 73.84 1.90618 73.3125 2.58627C73.3895 1.73409 73.7116 0.921034 74.2411 0.242065Z" fill="#FC9500"/>
<path d="M75.0783 0.795288C74.6684 1.54277 74.0545 2.16303 73.3056 2.58629C73.7115 1.8359 74.3264 1.21466 75.0783 0.795288Z" fill="#FC9500"/>
<path d="M75.6486 1.60425C74.9562 2.13093 74.1277 2.45669 73.2568 2.54469C73.9496 2.01865 74.7779 1.69297 75.6486 1.60425Z" fill="#FC9500"/>
<path d="M76.0843 2.44791C75.185 2.72516 74.2288 2.77277 73.3056 2.58622C74.2037 2.30245 75.1616 2.25476 76.0843 2.44791Z" fill="#FC9500"/>
<path d="M76.2109 3.52661C75.1805 3.44295 74.185 3.12069 73.3056 2.58618C74.3364 2.66776 75.3325 2.99018 76.2109 3.52661Z" fill="#FC9500"/>
<path d="M75.8099 4.20429C74.8563 3.86802 73.9979 3.31335 73.3056 2.58618C74.2611 2.91881 75.1204 3.47401 75.8099 4.20429Z" fill="#FC9500"/>
<path d="M74.9443 4.46015C74.2215 4.0027 73.6458 3.35282 73.2841 2.58618C74.0082 3.04216 74.5843 3.69245 74.9443 4.46015Z" fill="#FC9500"/>
<path d="M70.794 3.48517C71.7291 3.51738 72.6401 3.18994 73.3335 2.57239C72.6957 3.29821 71.7943 3.74991 70.8222 3.83092V3.48517H70.794Z" fill="#FC9500"/>
<path d="M96.386 62.2H98.178V69.158L103.442 62.2H105.136V72H103.344V65.056L98.08 72H96.386V62.2ZM107.688 64.524H109.438V67.562H113.204V64.524H114.954V72H113.204V69.046H109.438V72H107.688V64.524ZM120.701 72.098C119.926 72.098 119.231 71.9347 118.615 71.608C117.999 71.2813 117.518 70.8287 117.173 70.25C116.828 69.662 116.655 68.9993 116.655 68.262C116.655 67.5247 116.828 66.8667 117.173 66.288C117.518 65.7093 117.994 65.2567 118.601 64.93C119.217 64.6033 119.917 64.44 120.701 64.44C121.438 64.44 122.082 64.5893 122.633 64.888C123.193 65.1867 123.613 65.616 123.893 66.176L122.549 66.96C122.334 66.6147 122.064 66.358 121.737 66.19C121.42 66.0127 121.07 65.924 120.687 65.924C120.034 65.924 119.492 66.1387 119.063 66.568C118.634 66.988 118.419 67.5527 118.419 68.262C118.419 68.9713 118.629 69.5407 119.049 69.97C119.478 70.39 120.024 70.6 120.687 70.6C121.07 70.6 121.42 70.516 121.737 70.348C122.064 70.1707 122.334 69.9093 122.549 69.564L123.893 70.348C123.604 70.908 123.179 71.342 122.619 71.65C122.068 71.9487 121.429 72.098 120.701 72.098ZM131.287 66.008H128.669V72H126.919V66.008H124.287V64.524H131.287V66.008ZM132.557 64.524H134.307V69.452L138.437 64.524H140.033V72H138.283V67.072L134.167 72H132.557V64.524ZM148.309 66.008H145.691V72H143.941V66.008H141.309V64.524H148.309V66.008ZM156.689 64.524L153.189 72.602C152.862 73.414 152.466 73.9833 151.999 74.31C151.532 74.646 150.968 74.814 150.305 74.814C149.932 74.814 149.563 74.7533 149.199 74.632C148.835 74.5107 148.536 74.3427 148.303 74.128L149.003 72.84C149.171 72.9987 149.367 73.1247 149.591 73.218C149.824 73.3113 150.058 73.358 150.291 73.358C150.599 73.358 150.851 73.2787 151.047 73.12C151.252 72.9613 151.439 72.6953 151.607 72.322L151.733 72.028L148.471 64.524H150.291L152.643 70.054L155.009 64.524H156.689ZM163.881 66.008H161.263V72H159.513V66.008H156.881V64.524H163.881V66.008ZM173.164 64.44C173.892 64.44 174.54 64.5987 175.11 64.916C175.688 65.2333 176.141 65.6813 176.468 66.26C176.794 66.8387 176.958 67.506 176.958 68.262C176.958 69.018 176.794 69.69 176.468 70.278C176.141 70.8567 175.688 71.3047 175.11 71.622C174.54 71.9393 173.892 72.098 173.164 72.098C172.156 72.098 171.358 71.762 170.77 71.09V74.716H169.02V64.524H170.686V65.504C170.975 65.1493 171.33 64.8833 171.75 64.706C172.179 64.5287 172.65 64.44 173.164 64.44ZM172.968 70.6C173.612 70.6 174.139 70.3853 174.55 69.956C174.97 69.5267 175.18 68.962 175.18 68.262C175.18 67.562 174.97 66.9973 174.55 66.568C174.139 66.1387 173.612 65.924 172.968 65.924C172.548 65.924 172.17 66.022 171.834 66.218C171.498 66.4047 171.232 66.6753 171.036 67.03C170.84 67.3847 170.742 67.7953 170.742 68.262C170.742 68.7287 170.84 69.1393 171.036 69.494C171.232 69.8487 171.498 70.124 171.834 70.32C172.17 70.5067 172.548 70.6 172.968 70.6ZM181.39 64.44C182.491 64.44 183.331 64.706 183.91 65.238C184.498 65.7607 184.792 66.554 184.792 67.618V72H183.14V71.09C182.925 71.4167 182.617 71.6687 182.216 71.846C181.824 72.014 181.348 72.098 180.788 72.098C180.228 72.098 179.738 72.0047 179.318 71.818C178.898 71.622 178.571 71.356 178.338 71.02C178.114 70.6747 178.002 70.2873 178.002 69.858C178.002 69.186 178.249 68.6493 178.744 68.248C179.248 67.8373 180.036 67.632 181.11 67.632H183.042V67.52C183.042 66.9973 182.883 66.596 182.566 66.316C182.258 66.036 181.796 65.896 181.18 65.896C180.76 65.896 180.344 65.9613 179.934 66.092C179.532 66.2227 179.192 66.4047 178.912 66.638L178.226 65.364C178.618 65.0653 179.089 64.8367 179.64 64.678C180.19 64.5193 180.774 64.44 181.39 64.44ZM181.152 70.824C181.59 70.824 181.978 70.726 182.314 70.53C182.659 70.3247 182.902 70.0353 183.042 69.662V68.794H181.236C180.228 68.794 179.724 69.1253 179.724 69.788C179.724 70.1053 179.85 70.3573 180.102 70.544C180.354 70.7307 180.704 70.824 181.152 70.824ZM191.328 68.108C191.794 68.2387 192.154 68.4533 192.406 68.752C192.667 69.0413 192.798 69.3913 192.798 69.802C192.798 70.2593 192.644 70.6653 192.336 71.02C192.028 71.3653 191.603 71.636 191.062 71.832C190.52 72.028 189.904 72.126 189.214 72.126C188.635 72.126 188.07 72.0607 187.52 71.93C186.969 71.79 186.47 71.594 186.022 71.342L186.526 70.04C186.89 70.2453 187.3 70.404 187.758 70.516C188.215 70.628 188.672 70.684 189.13 70.684C189.718 70.684 190.175 70.5953 190.502 70.418C190.838 70.2313 191.006 69.9793 191.006 69.662C191.006 69.3727 190.875 69.1487 190.614 68.99C190.362 68.8313 190.002 68.752 189.536 68.752H188.08V67.576H189.396C189.834 67.576 190.175 67.5013 190.418 67.352C190.67 67.2027 190.796 66.9927 190.796 66.722C190.796 66.4513 190.646 66.2367 190.348 66.078C190.049 65.9193 189.638 65.84 189.116 65.84C188.369 65.84 187.58 66.022 186.75 66.386L186.302 65.098C187.282 64.6407 188.271 64.412 189.27 64.412C189.904 64.412 190.474 64.5007 190.978 64.678C191.482 64.846 191.874 65.0887 192.154 65.406C192.443 65.714 192.588 66.0687 192.588 66.47C192.588 66.834 192.476 67.1607 192.252 67.45C192.028 67.73 191.72 67.9493 191.328 68.108ZM200.032 68.108C200.956 68.388 201.418 68.9853 201.418 69.9C201.418 70.572 201.166 71.09 200.662 71.454C200.158 71.818 199.411 72 198.422 72H194.614V64.524H198.268C199.182 64.524 199.896 64.692 200.41 65.028C200.923 65.364 201.18 65.84 201.18 66.456C201.18 66.8387 201.077 67.17 200.872 67.45C200.676 67.73 200.396 67.9493 200.032 68.108ZM196.28 67.646H198.114C199.019 67.646 199.472 67.3333 199.472 66.708C199.472 66.1013 199.019 65.798 198.114 65.798H196.28V67.646ZM198.282 70.726C199.243 70.726 199.724 70.4133 199.724 69.788C199.724 69.4613 199.612 69.2187 199.388 69.06C199.164 68.892 198.814 68.808 198.338 68.808H196.28V70.726H198.282ZM203.281 64.524H205.031V69.452L209.161 64.524H210.757V72H209.007V67.072L204.891 72H203.281V64.524ZM219.034 66.008H216.416V72H214.666V66.008H212.034V64.524H219.034V66.008ZM220.303 64.524H222.053V69.452L226.183 64.524H227.779V72H226.029V67.072L221.913 72H220.303V64.524ZM236.447 64.524V72H234.879V69.746H232.905L231.379 72H229.503L231.267 69.508C230.726 69.3213 230.31 69.0367 230.021 68.654C229.741 68.262 229.601 67.7813 229.601 67.212C229.601 66.3533 229.904 65.6907 230.511 65.224C231.118 64.7573 231.953 64.524 233.017 64.524H236.447ZM233.073 65.994C231.944 65.994 231.379 66.4187 231.379 67.268C231.379 68.108 231.925 68.528 233.017 68.528H234.879V65.994H233.073Z" fill="#82A40E"/>
<path d="M102.518 78.524V86H100.768V83.102C100.049 83.4473 99.298 83.62 98.514 83.62C97.5527 83.62 96.8153 83.4007 96.302 82.962C95.7887 82.514 95.532 81.8327 95.532 80.918V78.524H97.282V80.806C97.282 81.282 97.422 81.6367 97.702 81.87C97.982 82.1033 98.3787 82.22 98.892 82.22C99.5453 82.22 100.171 82.08 100.768 81.8V78.524H102.518ZM111.871 82.304C111.871 82.4253 111.862 82.598 111.843 82.822H105.977C106.08 83.3727 106.346 83.8113 106.775 84.138C107.214 84.4553 107.755 84.614 108.399 84.614C109.221 84.614 109.897 84.3433 110.429 83.802L111.367 84.88C111.031 85.2813 110.607 85.5847 110.093 85.79C109.58 85.9953 109.001 86.098 108.357 86.098C107.536 86.098 106.813 85.9347 106.187 85.608C105.562 85.2813 105.077 84.8287 104.731 84.25C104.395 83.662 104.227 82.9993 104.227 82.262C104.227 81.534 104.391 80.8807 104.717 80.302C105.053 79.714 105.515 79.2567 106.103 78.93C106.691 78.6033 107.354 78.44 108.091 78.44C108.819 78.44 109.468 78.6033 110.037 78.93C110.616 79.2473 111.064 79.7 111.381 80.288C111.708 80.8667 111.871 81.5387 111.871 82.304ZM108.091 79.84C107.531 79.84 107.055 80.008 106.663 80.344C106.281 80.6707 106.047 81.1093 105.963 81.66H110.205C110.131 81.1187 109.902 80.68 109.519 80.344C109.137 80.008 108.661 79.84 108.091 79.84ZM120.466 78.524V86H118.716V80.008H115.916L115.846 81.492C115.799 82.4813 115.706 83.312 115.566 83.984C115.435 84.6467 115.206 85.174 114.88 85.566C114.562 85.9487 114.124 86.14 113.564 86.14C113.302 86.14 112.98 86.0887 112.598 85.986L112.682 84.516C112.812 84.544 112.924 84.558 113.018 84.558C113.372 84.558 113.638 84.418 113.816 84.138C113.993 83.8487 114.105 83.508 114.152 83.116C114.208 82.7147 114.254 82.1453 114.292 81.408L114.418 78.524H120.466ZM126.154 86.098C125.398 86.098 124.717 85.9347 124.11 85.608C123.504 85.2813 123.028 84.8287 122.682 84.25C122.346 83.662 122.178 82.9993 122.178 82.262C122.178 81.5247 122.346 80.8667 122.682 80.288C123.028 79.7093 123.504 79.2567 124.11 78.93C124.717 78.6033 125.398 78.44 126.154 78.44C126.92 78.44 127.606 78.6033 128.212 78.93C128.819 79.2567 129.29 79.7093 129.626 80.288C129.972 80.8667 130.144 81.5247 130.144 82.262C130.144 82.9993 129.972 83.662 129.626 84.25C129.29 84.8287 128.819 85.2813 128.212 85.608C127.606 85.9347 126.92 86.098 126.154 86.098ZM126.154 84.6C126.798 84.6 127.33 84.3853 127.75 83.956C128.17 83.5267 128.38 82.962 128.38 82.262C128.38 81.562 128.17 80.9973 127.75 80.568C127.33 80.1387 126.798 79.924 126.154 79.924C125.51 79.924 124.978 80.1387 124.558 80.568C124.148 80.9973 123.942 81.562 123.942 82.262C123.942 82.962 124.148 83.5267 124.558 83.956C124.978 84.3853 125.51 84.6 126.154 84.6ZM137.291 82.108C138.215 82.388 138.677 82.9853 138.677 83.9C138.677 84.572 138.425 85.09 137.921 85.454C137.417 85.818 136.671 86 135.681 86H131.873V78.524H135.527C136.442 78.524 137.156 78.692 137.669 79.028C138.183 79.364 138.439 79.84 138.439 80.456C138.439 80.8387 138.337 81.17 138.131 81.45C137.935 81.73 137.655 81.9493 137.291 82.108ZM133.539 81.646H135.373C136.279 81.646 136.731 81.3333 136.731 80.708C136.731 80.1013 136.279 79.798 135.373 79.798H133.539V81.646ZM135.541 84.726C136.503 84.726 136.983 84.4133 136.983 83.788C136.983 83.4613 136.871 83.2187 136.647 83.06C136.423 82.892 136.073 82.808 135.597 82.808H133.539V84.726H135.541ZM147.541 82.304C147.541 82.4253 147.532 82.598 147.513 82.822H141.647C141.75 83.3727 142.016 83.8113 142.445 84.138C142.884 84.4553 143.425 84.614 144.069 84.614C144.891 84.614 145.567 84.3433 146.099 83.802L147.037 84.88C146.701 85.2813 146.277 85.5847 145.763 85.79C145.25 85.9953 144.671 86.098 144.027 86.098C143.206 86.098 142.483 85.9347 141.857 85.608C141.232 85.2813 140.747 84.8287 140.401 84.25C140.065 83.662 139.897 82.9993 139.897 82.262C139.897 81.534 140.061 80.8807 140.387 80.302C140.723 79.714 141.185 79.2567 141.773 78.93C142.361 78.6033 143.024 78.44 143.761 78.44C144.489 78.44 145.138 78.6033 145.707 78.93C146.286 79.2473 146.734 79.7 147.051 80.288C147.378 80.8667 147.541 81.5387 147.541 82.304ZM143.761 79.84C143.201 79.84 142.725 80.008 142.333 80.344C141.951 80.6707 141.717 81.1093 141.633 81.66H145.875C145.801 81.1187 145.572 80.68 145.189 80.344C144.807 80.008 144.331 79.84 143.761 79.84ZM155.797 78.524V86H154.047V83.102C153.329 83.4473 152.577 83.62 151.793 83.62C150.832 83.62 150.095 83.4007 149.581 82.962C149.068 82.514 148.811 81.8327 148.811 80.918V78.524H150.561V80.806C150.561 81.282 150.701 81.6367 150.981 81.87C151.261 82.1033 151.658 82.22 152.171 82.22C152.825 82.22 153.45 82.08 154.047 81.8V78.524H155.797ZM165.151 82.304C165.151 82.4253 165.141 82.598 165.123 82.822H159.257C159.359 83.3727 159.625 83.8113 160.055 84.138C160.493 84.4553 161.035 84.614 161.679 84.614C162.5 84.614 163.177 84.3433 163.709 83.802L164.647 84.88C164.311 85.2813 163.886 85.5847 163.373 85.79C162.859 85.9953 162.281 86.098 161.637 86.098C160.815 86.098 160.092 85.9347 159.467 85.608C158.841 85.2813 158.356 84.8287 158.011 84.25C157.675 83.662 157.507 82.9993 157.507 82.262C157.507 81.534 157.67 80.8807 157.997 80.302C158.333 79.714 158.795 79.2567 159.383 78.93C159.971 78.6033 160.633 78.44 161.371 78.44C162.099 78.44 162.747 78.6033 163.317 78.93C163.895 79.2473 164.343 79.7 164.661 80.288C164.987 80.8667 165.151 81.5387 165.151 82.304ZM161.371 79.84C160.811 79.84 160.335 80.008 159.943 80.344C159.56 80.6707 159.327 81.1093 159.243 81.66H163.485C163.41 81.1187 163.181 80.68 162.799 80.344C162.416 80.008 161.94 79.84 161.371 79.84ZM170.467 86.098C169.692 86.098 168.997 85.9347 168.381 85.608C167.765 85.2813 167.284 84.8287 166.939 84.25C166.593 83.662 166.421 82.9993 166.421 82.262C166.421 81.5247 166.593 80.8667 166.939 80.288C167.284 79.7093 167.76 79.2567 168.367 78.93C168.983 78.6033 169.683 78.44 170.467 78.44C171.204 78.44 171.848 78.5893 172.399 78.888C172.959 79.1867 173.379 79.616 173.659 80.176L172.315 80.96C172.1 80.6147 171.829 80.358 171.503 80.19C171.185 80.0127 170.835 79.924 170.453 79.924C169.799 79.924 169.258 80.1387 168.829 80.568C168.399 80.988 168.185 81.5527 168.185 82.262C168.185 82.9713 168.395 83.5407 168.815 83.97C169.244 84.39 169.79 84.6 170.453 84.6C170.835 84.6 171.185 84.516 171.503 84.348C171.829 84.1707 172.1 83.9093 172.315 83.564L173.659 84.348C173.369 84.908 172.945 85.342 172.385 85.65C171.834 85.9487 171.195 86.098 170.467 86.098ZM178.307 83.004H176.949V86H175.199V78.524H176.949V81.548H178.349L180.561 78.524H182.437L179.721 82.122L182.619 86H180.561L178.307 83.004ZM186.94 86.098C186.184 86.098 185.502 85.9347 184.896 85.608C184.289 85.2813 183.813 84.8287 183.468 84.25C183.132 83.662 182.964 82.9993 182.964 82.262C182.964 81.5247 183.132 80.8667 183.468 80.288C183.813 79.7093 184.289 79.2567 184.896 78.93C185.502 78.6033 186.184 78.44 186.94 78.44C187.705 78.44 188.391 78.6033 188.998 78.93C189.604 79.2567 190.076 79.7093 190.412 80.288C190.757 80.8667 190.93 81.5247 190.93 82.262C190.93 82.9993 190.757 83.662 190.412 84.25C190.076 84.8287 189.604 85.2813 188.998 85.608C188.391 85.9347 187.705 86.098 186.94 86.098ZM186.94 84.6C187.584 84.6 188.116 84.3853 188.536 83.956C188.956 83.5267 189.166 82.962 189.166 82.262C189.166 81.562 188.956 80.9973 188.536 80.568C188.116 80.1387 187.584 79.924 186.94 79.924C186.296 79.924 185.764 80.1387 185.344 80.568C184.933 80.9973 184.728 81.562 184.728 82.262C184.728 82.962 184.933 83.5267 185.344 83.956C185.764 84.3853 186.296 84.6 186.94 84.6ZM198.398 80.008H194.408V86H192.658V78.524H198.398V80.008ZM202.676 86.098C201.92 86.098 201.239 85.9347 200.632 85.608C200.025 85.2813 199.549 84.8287 199.204 84.25C198.868 83.662 198.7 82.9993 198.7 82.262C198.7 81.5247 198.868 80.8667 199.204 80.288C199.549 79.7093 200.025 79.2567 200.632 78.93C201.239 78.6033 201.92 78.44 202.676 78.44C203.441 78.44 204.127 78.6033 204.734 78.93C205.341 79.2567 205.812 79.7093 206.148 80.288C206.493 80.8667 206.666 81.5247 206.666 82.262C206.666 82.9993 206.493 83.662 206.148 84.25C205.812 84.8287 205.341 85.2813 204.734 85.608C204.127 85.9347 203.441 86.098 202.676 86.098ZM202.676 84.6C203.32 84.6 203.852 84.3853 204.272 83.956C204.692 83.5267 204.902 82.962 204.902 82.262C204.902 81.562 204.692 80.9973 204.272 80.568C203.852 80.1387 203.32 79.924 202.676 79.924C202.032 79.924 201.5 80.1387 201.08 80.568C200.669 80.9973 200.464 81.562 200.464 82.262C200.464 82.962 200.669 83.5267 201.08 83.956C201.5 84.3853 202.032 84.6 202.676 84.6Z" fill="#82A40E"/>
<path d="M103.344 92.524V100H101.608V94.008H97.926V100H96.176V92.524H103.344ZM109.037 100.098C108.281 100.098 107.6 99.9347 106.993 99.608C106.387 99.2813 105.911 98.8287 105.565 98.25C105.229 97.662 105.061 96.9993 105.061 96.262C105.061 95.5247 105.229 94.8667 105.565 94.288C105.911 93.7093 106.387 93.2567 106.993 92.93C107.6 92.6033 108.281 92.44 109.037 92.44C109.803 92.44 110.489 92.6033 111.095 92.93C111.702 93.2567 112.173 93.7093 112.509 94.288C112.855 94.8667 113.027 95.5247 113.027 96.262C113.027 96.9993 112.855 97.662 112.509 98.25C112.173 98.8287 111.702 99.2813 111.095 99.608C110.489 99.9347 109.803 100.098 109.037 100.098ZM109.037 98.6C109.681 98.6 110.213 98.3853 110.633 97.956C111.053 97.5267 111.263 96.962 111.263 96.262C111.263 95.562 111.053 94.9973 110.633 94.568C110.213 94.1387 109.681 93.924 109.037 93.924C108.393 93.924 107.861 94.1387 107.441 94.568C107.031 94.9973 106.825 95.562 106.825 96.262C106.825 96.962 107.031 97.5267 107.441 97.956C107.861 98.3853 108.393 98.6 109.037 98.6ZM120.405 94.008H117.787V100H116.037V94.008H113.405V92.524H120.405V94.008ZM128.346 96.304C128.346 96.4253 128.337 96.598 128.318 96.822H122.452C122.555 97.3727 122.821 97.8113 123.25 98.138C123.689 98.4553 124.23 98.614 124.874 98.614C125.695 98.614 126.372 98.3433 126.904 97.802L127.842 98.88C127.506 99.2813 127.081 99.5847 126.568 99.79C126.055 99.9953 125.476 100.098 124.832 100.098C124.011 100.098 123.287 99.9347 122.662 99.608C122.037 99.2813 121.551 98.8287 121.206 98.25C120.87 97.662 120.702 96.9993 120.702 96.262C120.702 95.534 120.865 94.8807 121.192 94.302C121.528 93.714 121.99 93.2567 122.578 92.93C123.166 92.6033 123.829 92.44 124.566 92.44C125.294 92.44 125.943 92.6033 126.512 92.93C127.091 93.2473 127.539 93.7 127.856 94.288C128.183 94.8667 128.346 95.5387 128.346 96.304ZM124.566 93.84C124.006 93.84 123.53 94.008 123.138 94.344C122.755 94.6707 122.522 95.1093 122.438 95.66H126.68C126.605 95.1187 126.377 94.68 125.994 94.344C125.611 94.008 125.135 93.84 124.566 93.84ZM130.26 92.524H132.01V95.562H135.776V92.524H137.526V100H135.776V97.046H132.01V100H130.26V92.524ZM148.075 98.516V101.722H146.437V100H139.871V92.524H141.621V98.516H145.191V92.524H146.941V98.516H148.075ZM149.633 92.524H151.383V97.452L155.513 92.524H157.109V100H155.359V95.072L151.243 100H149.633V92.524ZM162.249 92.44C163.35 92.44 164.19 92.706 164.769 93.238C165.357 93.7607 165.651 94.554 165.651 95.618V100H163.999V99.09C163.784 99.4167 163.476 99.6687 163.075 99.846C162.683 100.014 162.207 100.098 161.647 100.098C161.087 100.098 160.597 100.005 160.177 99.818C159.757 99.622 159.43 99.356 159.197 99.02C158.973 98.6747 158.861 98.2873 158.861 97.858C158.861 97.186 159.108 96.6493 159.603 96.248C160.107 95.8373 160.896 95.632 161.969 95.632H163.901V95.52C163.901 94.9973 163.742 94.596 163.425 94.316C163.117 94.036 162.655 93.896 162.039 93.896C161.619 93.896 161.204 93.9613 160.793 94.092C160.392 94.2227 160.051 94.4047 159.771 94.638L159.085 93.364C159.477 93.0653 159.948 92.8367 160.499 92.678C161.05 92.5193 161.633 92.44 162.249 92.44ZM162.011 98.824C162.45 98.824 162.837 98.726 163.173 98.53C163.518 98.3247 163.761 98.0353 163.901 97.662V96.794H162.095C161.087 96.794 160.583 97.1253 160.583 97.788C160.583 98.1053 160.709 98.3573 160.961 98.544C161.213 98.7307 161.563 98.824 162.011 98.824ZM174.593 92.524V100H172.843V94.008H170.043L169.973 95.492C169.926 96.4813 169.833 97.312 169.693 97.984C169.562 98.6467 169.333 99.174 169.007 99.566C168.689 99.9487 168.251 100.14 167.691 100.14C167.429 100.14 167.107 100.089 166.725 99.986L166.809 98.516C166.939 98.544 167.051 98.558 167.145 98.558C167.499 98.558 167.765 98.418 167.943 98.138C168.12 97.8487 168.232 97.508 168.279 97.116C168.335 96.7147 168.381 96.1453 168.419 95.408L168.545 92.524H174.593ZM179.735 92.44C180.837 92.44 181.677 92.706 182.255 93.238C182.843 93.7607 183.137 94.554 183.137 95.618V100H181.485V99.09C181.271 99.4167 180.963 99.6687 180.561 99.846C180.169 100.014 179.693 100.098 179.133 100.098C178.573 100.098 178.083 100.005 177.663 99.818C177.243 99.622 176.917 99.356 176.683 99.02C176.459 98.6747 176.347 98.2873 176.347 97.858C176.347 97.186 176.595 96.6493 177.089 96.248C177.593 95.8373 178.382 95.632 179.455 95.632H181.387V95.52C181.387 94.9973 181.229 94.596 180.911 94.316C180.603 94.036 180.141 93.896 179.525 93.896C179.105 93.896 178.69 93.9613 178.279 94.092C177.878 94.2227 177.537 94.4047 177.257 94.638L176.571 93.364C176.963 93.0653 177.435 92.8367 177.985 92.678C178.536 92.5193 179.119 92.44 179.735 92.44ZM179.497 98.824C179.936 98.824 180.323 98.726 180.659 98.53C181.005 98.3247 181.247 98.0353 181.387 97.662V96.794H179.581C178.573 96.794 178.069 97.1253 178.069 97.788C178.069 98.1053 178.195 98.3573 178.447 98.544C178.699 98.7307 179.049 98.824 179.497 98.824Z" fill="#82A40E"/>
<path d="M121.676 52L121.64 35.296L113.36 49.12H111.272L102.992 35.512V52H98.564V26.8H102.416L112.388 43.468L122.252 26.8H126.068L126.14 52H121.676ZM133.228 26.8H137.836V44.692L151.372 26.8H155.728V52H151.12V34.144L137.584 52H133.228V26.8ZM173.162 26.8C175.346 26.8 177.242 27.16 178.85 27.88C180.482 28.6 181.73 29.632 182.594 30.976C183.458 32.32 183.89 33.916 183.89 35.764C183.89 37.588 183.458 39.184 182.594 40.552C181.73 41.896 180.482 42.928 178.85 43.648C177.242 44.368 175.346 44.728 173.162 44.728H167.474V52H162.794V26.8H173.162ZM172.946 40.768C174.986 40.768 176.534 40.336 177.59 39.472C178.646 38.608 179.174 37.372 179.174 35.764C179.174 34.156 178.646 32.92 177.59 32.056C176.534 31.192 174.986 30.76 172.946 30.76H167.474V40.768H172.946Z" fill="#82A40E"/>
</svg>
